<?xml version="1.0" encoding="utf-8"?>
<!-- Generator: Adobe Illustrator 24.0.0, SVG Export Plug-In . SVG Version: 6.00 Build 0)  -->
<svg version="1.0" id="Calque_1" xmlns="http://www.w3.org/2000/svg" xmlns:xlink="http://www.w3.org/1999/xlink" x="0px" y="0px"
	 viewBox="0 0 398 398" style="enable-background:new 0 0 398 398;" xml:space="preserve">
<style type="text/css">
	.st0{fill:#007FFF;}
</style>
<g>
	<g transform="rotate(0 50 50)">
		<path class="st0" d="M180.7,132.4L180.7,132.4c2.6,0,4.6,4.1,4.6,9.2l0,0c0,5.1-2.1,9.2-4.6,9.2l0,0c-2.6,0-4.6-4.1-4.6-9.2l0,0
			C176.1,136.5,178.2,132.4,180.7,132.4z		">
<animate  accumulate="none" additive="replace" attributeName="opacity" begin="-0.9166666666666666s" calcMode="linear" dur="1s" fill="remove" keyTimes="0;1" repeatCount="indefinite" restart="always" values="1;0">
				</animate>
		</path>
	</g>
	<g transform="rotate(30 50 50)">
		<path class="st0" d="M224.4,50.6L224.4,50.6c2.6,0,4.6,4.1,4.6,9.2l0,0c0,5.1-2.1,9.2-4.6,9.2l0,0c-2.6,0-4.6-4.1-4.6-9.2l0,0
			C219.8,54.8,221.9,50.6,224.4,50.6z		">
<animate  accumulate="none" additive="replace" attributeName="opacity" begin="-0.8333333333333334s" calcMode="linear" dur="1s" fill="remove" keyTimes="0;1" repeatCount="indefinite" restart="always" values="1;0">
				</animate>
		</path>
	</g>
	<g transform="rotate(60 50 50)">
		<path class="st0" d="M221.4-42L221.4-42c2.6,0,4.6,4.1,4.6,9.2l0,0c0,5.1-2.1,9.2-4.6,9.2l0,0c-2.6,0-4.6-4.1-4.6-9.2l0,0
			C216.8-37.9,218.8-42,221.4-42z		">
<animate  accumulate="none" additive="replace" attributeName="opacity" begin="-0.75s" calcMode="linear" dur="1s" fill="remove" keyTimes="0;1" repeatCount="indefinite" restart="always" values="1;0">
				</animate>
		</path>
	</g>
	<g transform="rotate(90 50 50)">
		<path class="st0" d="M172.4-120.8L172.4-120.8c2.6,0,4.6,4.1,4.6,9.2l0,0c0,5.1-2.1,9.2-4.6,9.2l0,0c-2.6,0-4.6-4.1-4.6-9.2l0,0
			C167.8-116.6,169.9-120.8,172.4-120.8z		">
<animate  accumulate="none" additive="replace" attributeName="opacity" begin="-0.6666666666666666s" calcMode="linear" dur="1s" fill="remove" keyTimes="0;1" repeatCount="indefinite" restart="always" values="1;0">
				</animate>
		</path>
	</g>
	<g transform="rotate(120 50 50)">
		<path class="st0" d="M90.6-164.4L90.6-164.4c2.6,0,4.6,4.1,4.6,9.2l0,0c0,5.1-2.1,9.2-4.6,9.2l0,0c-2.6,0-4.6-4.1-4.6-9.2l0,0
			C86-160.3,88.1-164.4,90.6-164.4z		">
<animate  accumulate="none" additive="replace" attributeName="opacity" begin="-0.5833333333333334s" calcMode="linear" dur="1s" fill="remove" keyTimes="0;1" repeatCount="indefinite" restart="always" values="1;0">
				</animate>
		</path>
	</g>
	<g transform="rotate(150 50 50)">
		<path class="st0" d="M-2-161.4L-2-161.4c2.6,0,4.6,4.1,4.6,9.2l0,0c0,5.1-2.1,9.2-4.6,9.2l0,0c-2.6,0-4.6-4.1-4.6-9.2l0,0
			C-6.6-157.3-4.6-161.4-2-161.4z		">
<animate  accumulate="none" additive="replace" attributeName="opacity" begin="-0.5s" calcMode="linear" dur="1s" fill="remove" keyTimes="0;1" repeatCount="indefinite" restart="always" values="1;0">
				</animate>
		</path>
	</g>
	<g transform="rotate(180 50 50)">
		<path class="st0" d="M-80.7-112.4L-80.7-112.4c2.6,0,4.6,4.1,4.6,9.2l0,0c0,5.1-2.1,9.2-4.6,9.2l0,0c-2.6,0-4.6-4.1-4.6-9.2l0,0
			C-85.3-108.3-83.3-112.4-80.7-112.4z		">
<animate  accumulate="none" additive="replace" attributeName="opacity" begin="-0.4166666666666667s" calcMode="linear" dur="1s" fill="remove" keyTimes="0;1" repeatCount="indefinite" restart="always" values="1;0">
				</animate>
		</path>
	</g>
	<g transform="rotate(210 50 50)">
		<path class="st0" d="M-124.4-30.7L-124.4-30.7c2.6,0,4.6,4.1,4.6,9.2l0,0c0,5.1-2.1,9.2-4.6,9.2l0,0c-2.6,0-4.6-4.1-4.6-9.2l0,0
			C-129-26.5-127-30.7-124.4-30.7z		">
<animate  accumulate="none" additive="replace" attributeName="opacity" begin="-0.3333333333333333s" calcMode="linear" dur="1s" fill="remove" keyTimes="0;1" repeatCount="indefinite" restart="always" values="1;0">
				</animate>
		</path>
	</g>
	<g transform="rotate(240 50 50)">
		<path class="st0" d="M-121.4,62L-121.4,62c2.6,0,4.6,4.1,4.6,9.2l0,0c0,5.1-2.1,9.2-4.6,9.2l0,0c-2.6,0-4.6-4.1-4.6-9.2l0,0
			C-126,66.1-123.9,62-121.4,62z		">
<animate  accumulate="none" additive="replace" attributeName="opacity" begin="-0.25s" calcMode="linear" dur="1s" fill="remove" keyTimes="0;1" repeatCount="indefinite" restart="always" values="1;0">
				</animate>
		</path>
	</g>
	<g transform="rotate(270 50 50)">
		<path class="st0" d="M-72.4,140.7L-72.4,140.7c2.6,0,4.6,4.1,4.6,9.2l0,0c0,5.1-2.1,9.2-4.6,9.2l0,0c-2.6,0-4.6-4.1-4.6-9.2l0,0
			C-77,144.8-75,140.7-72.4,140.7z		">
<animate  accumulate="none" additive="replace" attributeName="opacity" begin="-0.16666666666666666s" calcMode="linear" dur="1s" fill="remove" keyTimes="0;1" repeatCount="indefinite" restart="always" values="1;0">
				</animate>
		</path>
	</g>
	<g transform="rotate(300 50 50)">
		<path class="st0" d="M9.4,184.4L9.4,184.4c2.6,0,4.6,4.1,4.6,9.2l0,0c0,5.1-2.1,9.2-4.6,9.2l0,0c-2.6,0-4.6-4.1-4.6-9.2l0,0
			C4.7,188.5,6.8,184.4,9.4,184.4z		">
<animate  accumulate="none" additive="replace" attributeName="opacity" begin="-0.08333333333333333s" calcMode="linear" dur="1s" fill="remove" keyTimes="0;1" repeatCount="indefinite" restart="always" values="1;0">
				</animate>
		</path>
	</g>
	<g transform="rotate(330 50 50)">
		<path class="st0" d="M102,181.3L102,181.3c2.6,0,4.6,4.1,4.6,9.2l0,0c0,5.1-2.1,9.2-4.6,9.2l0,0c-2.6,0-4.6-4.1-4.6-9.2l0,0
			C97.4,185.5,99.5,181.3,102,181.3z		">
<animate  accumulate="none" additive="replace" attributeName="opacity" begin="0s" calcMode="linear" dur="1s" fill="remove" keyTimes="0;1" repeatCount="indefinite" restart="always" values="1;0">
				</animate>
		</path>
	</g>
	
		<image style="overflow:visible;" width="370" height="376" xlink:href="favicon.png"  transform="matrix(9.002849e-02 0 0 9.002849e-02 164.5583 156.3272)">
	</image>
</g>
</svg>
